<?xml version="1.0" standalone="no"?>
<!DOCTYPE svg PUBLIC "-//W3C//DTD SVG 20010904//EN"
 "http://www.w3.org/TR/2001/REC-SVG-20010904/DTD/svg10.dtd">
<svg version="1.0" xmlns="http://www.w3.org/2000/svg"
 width="16" height="16" viewBox="0 0 263.000000 242.000000"
 preserveAspectRatio="xMidYMid meet">
<metadata>
Created by potrace 1.10, written by Peter Selinger 2001-2011
</metadata>
<g transform="translate(0.000000,242.000000) scale(0.100000,-0.100000)"
fill="#000000" stroke="none">
<path d="M1320 1870 c-497 -5 -517 -6 -572 -27 -113 -43 -225 -136 -283 -237
-13 -23 -88 -192 -166 -376 l-143 -335 -1 -80 c0 -66 5 -90 26 -136 33 -69 89
-127 155 -160 l49 -24 451 -3 452 -3 91 215 91 216 -90 216 c-49 119 -90 220
-90 224 0 12 54 9 62 -4 5 -7 8 -7 8 0 0 12 268 13 287 1 15 -9 63 -111 63
-132 0 -8 4 -15 9 -15 5 0 11 -13 14 -30 4 -16 16 -49 27 -72 11 -23 20 -50
20 -60 0 -10 5 -18 10 -18 6 0 10 -7 10 -15 0 -9 9 -25 20 -37 35 -38 24 0
-64 208 l-83 199 -199 2 -199 3 -90 -217 c-49 -119 -89 -219 -88 -222 1 -3 40
-99 87 -212 47 -113 86 -210 86 -215 0 -5 -87 -9 -196 -9 l-196 0 -40 97 -41
98 -108 0 c-101 0 -109 2 -138 26 -58 48 -56 57 94 409 153 360 169 391 224
434 84 67 76 66 515 71 l399 5 48 113 c44 106 46 112 26 110 -12 -1 -254 -5
-537 -8z m495 -32 c4 -4 4 -15 0 -25 -5 -10 -9 -24 -11 -32 -1 -7 -7 -18 -13
-24 -6 -6 -11 -17 -11 -25 0 -8 -10 -22 -22 -32 -21 -17 -47 -19 -353 -19
-181 -1 -352 -4 -380 -7 -119 -15 -221 -90 -266 -193 -12 -28 -25 -51 -29 -51
-3 0 -7 -6 -7 -14 0 -23 -25 -76 -36 -76 -6 0 -8 -3 -4 -6 7 -7 -22 -86 -35
-95 -5 -3 -8 -10 -7 -15 2 -5 -4 -25 -12 -44 -9 -19 -24 -56 -35 -82 -10 -27
-22 -48 -26 -48 -5 0 -8 -7 -8 -15 0 -9 -9 -35 -20 -57 -11 -23 -20 -48 -20
-55 0 -7 -4 -13 -10 -13 -5 0 -10 -11 -10 -25 0 -14 -4 -25 -8 -25 -4 0 -8
-21 -8 -47 0 -43 5 -53 42 -89 l41 -41 102 -2 c57 -1 111 -7 120 -13 23 -14
66 -127 53 -140 -6 -6 -93 -8 -228 -6 -188 3 -224 6 -256 21 -42 21 -118 89
-118 105 0 7 -4 12 -10 12 -5 0 -10 9 -10 19 0 11 -5 21 -11 23 -26 9 -34 183
-10 212 7 8 14 24 16 37 3 12 10 26 17 30 7 4 10 11 6 14 -3 4 5 28 18 55 13
26 24 55 24 64 0 9 5 16 10 16 6 0 10 9 10 20 0 11 3 20 8 20 4 0 15 27 26 60
10 33 24 64 31 70 8 6 12 17 9 24 -3 8 2 20 10 29 9 9 16 22 16 30 0 7 3 17 7
21 4 3 8 14 9 24 2 9 8 18 13 20 6 2 11 15 11 28 0 13 5 24 10 24 6 0 10 11
10 25 0 14 4 25 9 25 5 0 12 12 15 26 10 37 177 204 205 204 11 0 21 3 21 8 0
8 56 35 80 37 8 1 22 5 30 9 30 12 983 16 995 4z m-451 -703 c36 -88 71 -168
76 -178 9 -14 4 -31 -18 -77 -17 -32 -33 -56 -38 -52 -4 4 -4 1 0 -6 4 -7 -5
-38 -19 -70 -15 -31 -31 -66 -35 -77 -4 -11 -18 -42 -31 -69 l-23 -48 -13 28
c-65 148 -101 236 -124 303 l-19 53 31 72 c17 39 36 85 44 101 7 17 16 40 20
53 3 12 11 22 16 22 6 0 8 4 5 8 -3 5 2 21 10 36 7 16 14 32 14 38 0 14 24 37
32 30 3 -4 36 -79 72 -167z"/>
<path d="M2347 1650 l-198 -5 -144 -335 c-80 -184 -144 -342 -145 -351 0 -9
38 -107 85 -219 47 -112 85 -208 85 -214 0 -8 -52 -11 -171 -9 -190 1 -194 3
-218 70 -7 21 -24 61 -36 88 -12 28 -37 86 -56 130 -30 74 -69 134 -69 108 0
-6 38 -103 84 -214 l84 -204 202 0 201 0 249 580 c137 319 248 580 247 580 -1
0 -91 -2 -200 -5z m135 -55 c-3 -19 -15 -52 -33 -87 -5 -10 -9 -25 -9 -33 0
-8 -4 -15 -10 -15 -5 0 -10 -7 -10 -15 0 -8 -4 -23 -9 -33 -5 -9 -29 -64 -53
-122 -23 -58 -46 -106 -50 -108 -5 -2 -8 -15 -8 -28 0 -13 -4 -24 -10 -24 -5
0 -10 -6 -10 -14 0 -8 -9 -31 -19 -53 -11 -21 -30 -64 -42 -95 -12 -32 -27
-58 -31 -58 -5 0 -7 -4 -3 -10 3 -5 -11 -44 -31 -87 -20 -43 -40 -87 -44 -98
-40 -92 -69 -155 -73 -155 -3 0 -28 57 -57 128 -28 70 -57 141 -65 157 -36 80
-43 105 -34 110 9 6 20 30 64 135 11 25 24 48 29 52 6 4 7 10 3 14 -3 4 0 19
7 33 8 14 20 41 26 59 7 17 16 32 21 32 5 0 9 9 9 20 0 11 4 28 9 38 19 36 50
111 57 137 4 15 12 29 20 32 7 2 11 10 8 18 -3 7 1 19 8 26 7 8 14 21 16 29 9
38 21 41 176 38 145 -3 151 -4 148 -23z"/>
<path d="M700 953 c0 -18 93 -223 101 -223 12 0 11 13 -3 47 -6 15 -12 30 -13
33 -1 3 -9 22 -18 43 -33 75 -39 72 123 74 155 3 194 8 185 23 -7 12 -375 14
-375 3z"/>
</g>
</svg>
