<?xml version="1.0" standalone="no"?>
<!DOCTYPE svg PUBLIC "-//W3C//DTD SVG 20010904//EN"
 "http://www.w3.org/TR/2001/REC-SVG-20010904/DTD/svg10.dtd">
<svg version="1.0" xmlns="http://www.w3.org/2000/svg"
 width="44" height="44" viewBox="0 0 248.000000 244.000000"
 preserveAspectRatio="xMidYMid meet">
<metadata>
Created by potrace 1.10, written by Peter Selinger 2001-2011
</metadata>
<g transform="translate(0.000000,244.000000) scale(0.100000,-0.100000)"
fill="#343deb" stroke="none">
<path d="M965 2416 c-115 -29 -246 -122 -316 -225 -19 -28 -39 -51 -46 -51
-19 0 -68 66 -87 120 -10 28 -23 49 -30 47 -6 -2 -22 -23 -35 -48 -21 -36 -25
-57 -25 -124 1 -51 7 -94 17 -117 18 -43 17 -44 -25 -22 -36 19 -143 23 -160
6 -9 -9 6 -37 55 -111 37 -55 62 -103 57 -106 -14 -9 -80 -129 -101 -185 -10
-28 -19 -71 -20 -97 -1 -28 -15 -84 -34 -133 -18 -47 -41 -110 -50 -141 -16
-50 -20 -55 -41 -51 -33 6 -71 -5 -94 -28 -38 -38 -25 -159 29 -283 16 -37 21
-69 21 -135 0 -239 115 -428 325 -535 64 -32 198 -77 230 -77 35 0 31 -11 -16
-40 -46 -28 -89 -80 -67 -80 8 0 34 20 58 45 48 49 64 53 33 8 -32 -46 -35
-53 -21 -53 7 0 28 23 46 50 28 44 36 50 67 50 24 0 45 -9 68 -30 66 -57 139
-65 240 -26 46 18 91 26 177 30 63 4 135 11 160 16 l45 9 47 -49 c51 -55 82
-68 53 -22 -10 15 -29 37 -42 49 -29 28 -29 33 1 33 34 0 181 47 241 78 131
65 246 171 299 273 24 45 40 61 89 90 34 19 89 60 123 92 111 103 140 202 89
303 -49 97 -49 98 60 198 53 49 92 93 88 97 -5 5 -51 -9 -103 -31 -77 -32 -91
-41 -72 -46 26 -7 28 -19 7 -41 -14 -13 -16 -11 -21 16 -4 17 -11 31 -18 31
-6 0 3 10 20 22 60 43 104 131 128 260 15 79 6 95 -29 52 -33 -42 -38 -26 -9
31 23 48 54 219 41 231 -5 5 -89 -5 -184 -22 -31 -6 -32 -6 -31 33 0 45 -5 65
-34 141 -11 28 -25 52 -32 52 -6 0 -35 -16 -63 -35 -29 -19 -54 -35 -56 -35
-3 0 -20 33 -39 73 -69 144 -201 290 -301 332 -39 16 -57 13 -57 -9 0 -22 -48
-66 -73 -66 -20 0 -23 5 -24 35 -1 42 -25 82 -58 97 -21 10 -33 4 -113 -55
-48 -36 -96 -75 -107 -87 -10 -11 -25 -20 -33 -20 -19 0 -9 87 19 149 10 24
19 49 19 56 0 25 -197 33 -285 11z m138 -13 c4 -3 17 -7 30 -9 12 -1 33 -5 46
-10 19 -5 22 -4 16 6 -5 9 -4 11 3 6 9 -5 7 -14 -4 -32 -9 -13 -19 -54 -22
-90 -4 -61 -3 -68 20 -89 23 -21 28 -22 52 -10 43 23 66 41 59 48 -3 4 1 7 11
7 10 0 14 5 10 12 -4 6 -3 8 3 5 5 -4 24 7 41 24 17 17 36 28 41 25 5 -4 13
-1 17 5 5 8 3 9 -6 4 -8 -5 -11 -4 -7 2 7 11 36 11 55 -1 7 -4 10 -11 7 -16
-3 -5 -1 -11 5 -15 5 -3 10 -15 10 -25 0 -26 38 -50 80 -50 26 0 31 3 20 10
-13 8 -12 10 5 11 11 1 23 1 28 0 4 0 7 8 7 19 0 12 5 17 14 14 8 -3 17 0 21
5 4 8 17 4 38 -11 43 -30 147 -135 147 -148 0 -5 5 -10 10 -10 6 0 10 -6 10
-14 0 -7 8 -20 18 -27 16 -13 16 -13 2 6 -14 19 -14 19 2 6 10 -7 16 -17 13
-21 -7 -12 21 -61 30 -52 5 4 5 -1 2 -10 -4 -10 -2 -18 3 -18 4 0 11 -14 15
-30 4 -17 11 -28 16 -24 5 3 9 -2 9 -10 0 -21 46 -32 65 -16 9 7 18 10 22 6 3
-3 14 1 24 10 16 14 19 13 37 -6 19 -21 29 -51 38 -114 2 -17 10 -33 17 -38 6
-4 8 -8 2 -8 -5 -1 1 -7 15 -14 19 -10 41 -11 88 -5 35 5 68 6 73 3 12 -7 9
-95 -4 -112 -5 -6 -10 -32 -11 -56 0 -24 -4 -42 -8 -39 -11 6 3 -30 19 -48 11
-14 11 -25 -1 -73 -18 -68 -60 -147 -86 -164 -11 -7 -20 -9 -21 -5 -4 39 -14
61 -24 51 -6 -6 16 -100 26 -108 3 -3 9 -33 12 -67 6 -53 4 -61 -8 -57 -8 4
-15 9 -15 13 0 4 -16 13 -35 20 -19 6 -45 26 -57 44 -13 18 -36 45 -53 62 -16
16 -29 33 -28 37 2 4 -1 7 -6 5 -5 -1 -27 15 -49 35 -82 76 -290 200 -372 222
-14 4 -34 11 -45 16 -11 5 -44 16 -72 25 -29 9 -53 21 -53 27 0 6 7 7 16 4 9
-3 28 -6 42 -6 21 0 24 -2 12 -10 -25 -16 16 -13 48 4 49 25 66 57 75 137 1 9
7 15 14 12 7 -3 13 0 13 6 0 6 -5 11 -11 11 -5 0 -8 4 -4 10 9 14 -35 39 -96
54 -73 18 -129 26 -127 18 3 -16 -15 -42 -29 -42 -8 0 -11 5 -8 11 10 15 -42
59 -71 59 -13 0 -24 -5 -24 -11 0 -5 -10 -3 -22 5 -47 33 -116 9 -118 -42 -1
-15 -2 -47 -2 -71 -1 -24 -4 -39 -6 -33 -2 7 -8 10 -12 7 -5 -3 -12 0 -16 6
-5 8 -3 9 5 4 9 -5 12 -2 9 11 -1 9 -7 17 -12 15 -4 -1 -14 8 -20 21 -15 28
-18 71 -5 63 13 -9 11 7 -5 28 -23 29 -101 19 -109 -15 -4 -13 -10 -17 -18
-12 -9 5 -10 2 -5 -11 4 -11 0 -25 -10 -36 -10 -11 -14 -19 -10 -19 4 0 1 -7
-8 -15 -22 -22 -32 -85 -15 -95 7 -5 17 -6 21 -4 4 3 8 -2 8 -10 0 -13 -13
-16 -70 -16 -92 0 -346 -35 -435 -59 -124 -35 -190 -50 -194 -45 -10 9 23 113
60 190 52 107 73 134 109 134 16 0 41 5 57 11 15 6 52 11 81 11 45 1 56 -3 75
-26 12 -14 28 -26 35 -26 22 0 12 14 -27 43 -44 30 -99 35 -176 16 -54 -14
-91 -6 -106 22 -9 17 -8 20 3 14 7 -3 6 -1 -2 7 -24 20 -61 84 -53 91 3 4 0 7
-7 7 -7 0 -11 2 -9 5 3 2 33 -2 68 -11 59 -13 65 -13 83 2 16 15 17 27 11 98
-8 102 -7 137 8 150 9 8 10 8 5 -1 -4 -7 -2 -13 4 -13 6 0 15 -12 20 -26 6
-14 14 -22 20 -19 5 3 10 0 10 -7 0 -8 14 -22 30 -32 29 -17 32 -17 58 0 15 9
34 26 42 36 56 72 86 105 114 125 17 13 42 31 55 40 13 10 27 18 30 18 3 1 25
11 48 23 23 12 52 22 63 22 12 0 18 4 15 10 -4 6 6 7 25 4 19 -4 30 -2 30 5 0
12 42 15 53 4z m-3 -605 c0 -6 -7 -19 -15 -28 -14 -16 -12 -23 20 -80 19 -34
33 -65 30 -70 -9 -15 -53 2 -59 24 -3 11 -12 30 -20 41 -14 19 -16 18 -33 -22
-15 -36 -23 -43 -45 -43 -16 0 -28 2 -28 5 0 3 23 46 51 95 42 75 54 90 75 90
13 0 24 -5 24 -12z m174 -11 c16 -11 17 -17 6 -36 -14 -28 -11 -32 18 -24 15
4 25 16 29 34 4 23 11 29 30 29 23 0 25 -3 21 -31 -3 -20 0 -33 9 -36 18 -7
17 -25 -1 -21 -8 2 -16 -1 -17 -7 -16 -73 -17 -75 -3 -75 8 0 14 -7 14 -15 0
-13 -7 -15 -35 -9 -19 3 -58 9 -87 13 l-53 6 -1 40 c0 22 8 55 18 73 17 31 17
32 -2 32 -11 0 -20 5 -20 10 0 6 7 10 15 10 8 0 15 5 15 10 0 14 23 12 44 -3z
m317 -47 c53 -10 57 -13 55 -38 0 -15 -8 -35 -17 -45 -14 -15 -22 -16 -60 -8
-55 13 -69 13 -69 2 0 -5 25 -12 55 -16 62 -7 69 -13 55 -49 -11 -30 -35 -33
-117 -14 -39 9 -52 16 -48 27 3 8 0 18 -7 22 -10 7 -10 11 0 21 6 6 12 20 12
30 0 10 7 18 18 18 16 1 16 1 0 14 -25 19 -22 27 7 20 14 -3 25 -2 25 4 0 5
-9 12 -21 15 -12 3 -18 10 -15 15 4 7 19 7 39 2 17 -5 57 -14 88 -20z m-518
-129 c4 -1 7 -8 7 -16 0 -9 -9 -15 -25 -15 -18 0 -25 5 -25 19 0 13 6 18 18
16 9 -2 20 -4 25 -4z m117 -5 c6 -8 24 -17 38 -19 15 -2 -1 -5 -35 -6 -63 -1
-74 4 -51 27 16 16 33 15 48 -2z m-180 -16 c-19 -12 -30 -12 -30 -1 0 10 31
20 40 14 2 -2 -2 -8 -10 -13z m418 -14 c12 -4 22 -14 22 -21 0 -19 -58 -9 -80
13 -13 13 -13 14 3 9 12 -5 17 -1 17 11 0 11 3 13 8 6 4 -6 17 -14 30 -18z
m-122 -41 c206 -31 437 -119 583 -222 61 -43 241 -209 241 -222 0 -3 -21 -6
-47 -6 -25 0 -48 -5 -50 -11 -2 -6 19 -10 59 -10 94 -1 167 -45 211 -129 38
-74 20 -162 -49 -244 -30 -36 -132 -111 -184 -136 -27 -12 -44 -33 -68 -79
-43 -82 -90 -136 -165 -190 -133 -94 -307 -156 -498 -177 -156 -17 -516 -5
-644 21 -212 45 -320 96 -427 201 -113 110 -153 208 -164 394 -10 160 35 374
128 620 l35 90 66 22 c96 31 295 70 422 83 61 5 126 12 145 14 64 8 301 -4
406 -19z m-1192 -482 c-13 -54 -24 -115 -24 -135 0 -59 -15 -45 -39 35 -40
134 -24 197 49 197 l37 0 -23 -97z m858 -976 c76 -4 81 -13 15 -27 -61 -12
-130 -2 -156 25 -15 15 -12 16 34 10 28 -3 76 -7 107 -8z"/>
<path d="M899 1864 c-12 -15 -11 -16 11 -9 35 10 49 25 23 25 -11 0 -27 -7
-34 -16z"/>
<path d="M960 1870 c0 -6 62 -9 158 -9 95 0 149 4 137 9 -28 12 -295 12 -295
0z"/>
<path d="M1280 1861 c0 -5 17 -13 38 -16 104 -15 171 -28 210 -41 24 -8 47
-12 52 -9 5 3 10 0 12 -6 2 -7 18 -12 36 -13 18 0 32 -4 32 -7 0 -3 23 -12 50
-19 28 -7 50 -17 50 -21 0 -4 13 -10 30 -14 16 -4 32 -11 35 -16 8 -13 75 -43
81 -36 8 8 -70 56 -130 80 -28 11 -55 24 -60 29 -6 4 -19 8 -31 8 -12 0 -25 4
-30 9 -13 12 -152 46 -245 61 -41 6 -87 13 -102 16 -16 3 -28 1 -28 -5z"/>
<path d="M833 1825 c14 -30 47 -34 47 -5 0 12 -5 17 -14 14 -8 -3 -17 -1 -21
5 -13 22 -23 10 -12 -14z"/>
<path d="M742 1774 c-18 -21 -21 -33 -16 -61 7 -36 25 -41 30 -7 1 10 5 36 8
57 4 20 5 37 4 37 -2 0 -13 -12 -26 -26z"/>
<path d="M1950 1624 c0 -8 114 -114 123 -114 4 0 7 -5 7 -11 0 -5 13 -24 30
-42 16 -18 30 -37 30 -44 0 -6 3 -13 8 -15 11 -5 52 -85 52 -102 0 -9 5 -16
10 -16 6 0 10 8 10 18 0 26 -87 170 -110 182 -11 6 -20 17 -20 26 0 8 -14 27
-31 42 -17 15 -42 36 -54 48 -24 22 -55 38 -55 28z"/>
<path d="M1286 1708 c-3 -7 -7 -28 -10 -45 -5 -28 -3 -33 14 -33 14 0 20 7 20
23 0 12 3 32 6 45 5 16 2 22 -10 22 -9 0 -18 -6 -20 -12z"/>
<path d="M1546 1721 c-6 -9 35 -24 43 -15 6 5 -18 24 -31 24 -4 0 -9 -4 -12
-9z"/>
<path d="M1525 1680 c3 -5 17 -10 31 -10 14 0 22 4 19 10 -3 6 -17 10 -31 10
-14 0 -22 -4 -19 -10z"/>
<path d="M1500 1611 c0 -22 50 -36 62 -18 9 15 0 23 -34 31 -23 5 -28 3 -28
-13z"/>
<path d="M438 1423 c-16 -2 -28 -10 -28 -18 0 -10 12 -12 53 -8 81 8 157 -18
214 -72 26 -25 51 -41 55 -37 13 13 -71 92 -120 113 -46 20 -128 30 -174 22z"/>
<path d="M1565 1321 c-53 -19 -152 -67 -172 -83 -7 -6 -10 -14 -7 -19 3 -5 40
9 82 30 99 50 177 73 219 65 20 -4 33 -2 33 4 0 27 -83 29 -155 3z"/>
<path d="M392 1046 c-70 -80 -62 -244 14 -278 60 -27 118 55 118 167 0 131
-66 186 -132 111z m32 -32 c20 -8 21 -38 1 -54 -29 -24 -60 21 -33 48 14 14
12 14 32 6z m44 -96 c-6 -18 -28 -21 -28 -4 0 9 7 16 16 16 9 0 14 -5 12 -12z
m-53 -18 c8 0 24 -10 36 -22 20 -21 21 -21 15 -3 -5 14 -4 17 3 10 13 -13 2
-57 -12 -48 -6 4 -8 0 -5 -8 9 -24 -38 -20 -50 5 -18 37 -22 56 -15 73 4 11 8
12 11 5 2 -7 10 -12 17 -12z"/>
<path d="M1552 904 c-32 -22 -59 -81 -66 -144 -7 -66 9 -115 46 -143 26 -19
27 -19 59 -1 48 28 74 86 76 169 1 38 -3 77 -8 86 -26 50 -66 62 -107 33z m33
-64 c0 -18 -6 -26 -23 -28 -27 -4 -40 22 -22 44 19 22 45 13 45 -16z m47 -62
c5 -31 -2 -59 -13 -53 -5 4 -9 -6 -9 -20 0 -15 -4 -24 -10 -20 -5 3 -10 2 -10
-3 0 -5 -11 -14 -25 -20 -14 -6 -24 -8 -24 -4 3 19 -2 33 -10 27 -6 -3 -8 7
-6 22 2 16 4 33 5 38 0 6 9 0 19 -12 19 -22 31 -21 31 4 0 7 -5 12 -11 11 -6
-2 -14 3 -16 10 -3 6 2 12 10 12 8 0 18 -7 21 -16 3 -8 11 -12 17 -9 6 4 8 14
5 22 -3 8 -4 19 0 24 9 16 22 10 26 -13z"/>
<path d="M2033 842 c-63 -41 -90 -72 -65 -72 18 0 152 101 147 110 -8 13 0 17
-82 -38z"/>
<path d="M550 672 c0 -60 14 -104 51 -158 92 -136 370 -190 574 -112 69 26
185 131 185 167 0 27 -12 27 -29 0 -12 -21 -18 -21 -103 -15 -97 6 -303 40
-518 84 -127 27 -135 29 -135 52 0 13 -6 25 -13 28 -8 2 -12 -11 -12 -46z
m175 -62 c183 -39 379 -70 478 -77 53 -3 97 -9 97 -14 0 -14 -101 -81 -151
-100 -113 -43 -303 -33 -414 21 -76 37 -120 82 -146 150 l-20 53 28 -6 c15 -3
73 -16 128 -27z"/>
<path d="M630 580 c19 -17 40 -30 48 -30 7 0 11 -4 8 -9 -3 -4 6 -6 21 -3 19
4 24 2 18 -8 -6 -9 -4 -11 5 -5 7 4 15 3 19 -3 6 -10 109 -36 191 -48 19 -3
45 -10 57 -16 25 -12 191 -6 216 8 10 6 -22 10 -89 11 -124 3 -278 33 -388 75
-45 17 -87 31 -93 31 -7 0 -13 4 -13 8 0 4 -8 10 -17 13 -10 3 -2 -8 17 -24z"/>
</g>
</svg>
